HIERARCHY
ROOT Hips
{
  OFFSET 5.72205e-005 65.662 3.42586
  CHANNELS 6 Xposition Yposition Zposition Zrotation Xrotation Yrotation
  JOINT Chest
  {
    OFFSET 0 8.7983 -4.7612
    CHANNELS 3 Zrotation Xrotation Yrotation
    JOINT Chest2
    {
      OFFSET 0 8.0291 0.4195
      CHANNELS 3 Zrotation Xrotation Yrotation
      JOINT Chest3
      {
        OFFSET 0 9.9351 -2.2114
        CHANNELS 3 Zrotation Xrotation Yrotation
        JOINT Neck
        {
          OFFSET 0 22.3885 -0.4656
          CHANNELS 3 Zrotation Xrotation Yrotation
          JOINT Head
          {
            OFFSET -0.0001 12.643 3.4389
            CHANNELS 3 Zrotation Xrotation Yrotation
            End Site
            {
              OFFSET 0.0001 17.6655 0.5274
            }
          }
        }
        JOINT LeftCollar
        {
          OFFSET 2.2603 21.606 7.4023
          CHANNELS 3 Zrotation Xrotation Yrotation
          JOINT LeftShoulder
          {
            OFFSET 13.5163 -1.1332 -5.0146
            CHANNELS 3 Zrotation Xrotation Yrotation
            JOINT LeftElbow
            {
              OFFSET -0.0995 -28.05 -0.2431
              CHANNELS 3 Zrotation Xrotation Yrotation
              JOINT LeftWrist
              {
                OFFSET 0.0679 -23.3996 -0.1402
                CHANNELS 3 Zrotation Xrotation Yrotation
                JOINT LeftFinger1
                {
                  OFFSET 0.7932 -9.069 2.5189
                  CHANNELS 3 Zrotation Xrotation Yrotation
                  JOINT LeftFinger11
                  {
                    OFFSET -0.8272 -3.3923 0.5977
                    CHANNELS 3 Zrotation Xrotation Yrotation
                    JOINT LeftFinger12
                    {
                      OFFSET -0.5649 -2.3158 0.4082
                      CHANNELS 3 Zrotation Xrotation Yrotation
                      End Site
                      {
                        OFFSET -0.4919 -1.6479 0.2673
                      }
                    }
                  }
                }
                JOINT LeftFinger2
                {
                  OFFSET 0.9159 -9.2044 0.2193
                  CHANNELS 3 Zrotation Xrotation Yrotation
                  JOINT LeftFinger21
                  {
                    OFFSET 0.0117 -4.1944 -0.0248
                    CHANNELS 3 Zrotation Xrotation Yrotation
                    JOINT LeftFinger22
                    {
                      OFFSET 0.0071 -2.3249 -0.0142
                      CHANNELS 3 Zrotation Xrotation Yrotation
                      End Site
                      {
                        OFFSET -0.1475 -2.0882 0.0028
                      }
                    }
                  }
                }
                JOINT LeftFinger3
                {
                  OFFSET 0.6113 -8.7231 -2.0637
                  CHANNELS 3 Zrotation Xrotation Yrotation
                  JOINT LeftFinger31
                  {
                    OFFSET -0.1927 -3.8059 -0.2383
                    CHANNELS 3 Zrotation Xrotation Yrotation
                    JOINT LeftFinger32
                    {
                      OFFSET -0.1091 -2.1688 -0.1362
                      CHANNELS 3 Zrotation Xrotation Yrotation
                      End Site
                      {
                        OFFSET -0.2358 -1.9176 -0.0906
                      }
                    }
                  }
                }
                JOINT LeftFinger4
                {
                  OFFSET -0.6151 -8.0947 -3.5641
                  CHANNELS 3 Zrotation Xrotation Yrotation
                  JOINT LeftFinger41
                  {
                    OFFSET -0.4882 -2.341 -0.6462
                    CHANNELS 3 Zrotation Xrotation Yrotation
                    JOINT LeftFinger42
                    {
                      OFFSET -0.3575 -1.7167 -0.4742
                      CHANNELS 3 Zrotation Xrotation Yrotation
                      End Site
                      {
                        OFFSET -0.4187 -1.5237 -0.3496
                      }
                    }
                  }
                }
                JOINT LeftFinger0
                {
                  OFFSET -1.42 -1.8761 1.4223
                  CHANNELS 3 Zrotation Xrotation Yrotation
                  JOINT LeftFinger01
                  {
                    OFFSET -1.1471 -3.4929 2.6334
                    CHANNELS 3 Zrotation Xrotation Yrotation
                    JOINT LeftFinger02
                    {
                      OFFSET -0.823 -2.3 1.6571
                      CHANNELS 3 Zrotation Xrotation Yrotation
                      End Site
                      {
                        OFFSET -0.5822 -1.6914 1.1582
                      }
                    }
                  }
                }
              }
            }
          }
        }
        JOINT RightCollar
        {
          OFFSET -2.2603 21.606 7.4023
          CHANNELS 3 Zrotation Xrotation Yrotation
          JOINT RightShoulder
          {
            OFFSET -13.5187 -1.1334 -5.0155
            CHANNELS 3 Zrotation Xrotation Yrotation
            JOINT RightElbow
            {
              OFFSET 0.0994 -28.0499 -0.2431
              CHANNELS 3 Zrotation Xrotation Yrotation
              JOINT RightWrist
              {
                OFFSET -0.0679 -23.3996 -0.1402
                CHANNELS 3 Zrotation Xrotation Yrotation
                JOINT RightFinger1
                {
                  OFFSET -0.7932 -9.0691 2.5189
                  CHANNELS 3 Zrotation Xrotation Yrotation
                  JOINT RightFinger11
                  {
                    OFFSET 0.8272 -3.3923 0.5977
                    CHANNELS 3 Zrotation Xrotation Yrotation
                    JOINT RightFinger12
                    {
                      OFFSET 0.565 -2.3158 0.4082
                      CHANNELS 3 Zrotation Xrotation Yrotation
                      End Site
                      {
                        OFFSET 0.4919 -1.6479 0.2673
                      }
                    }
                  }
                }
                JOINT RightFinger2
                {
                  OFFSET -0.916 -9.2044 0.2193
                  CHANNELS 3 Zrotation Xrotation Yrotation
                  JOINT RightFinger21
                  {
                    OFFSET -0.0117 -4.1944 -0.0248
                    CHANNELS 3 Zrotation Xrotation Yrotation
                    JOINT RightFinger22
                    {
                      OFFSET -0.0071 -2.3249 -0.0142
                      CHANNELS 3 Zrotation Xrotation Yrotation
                      End Site
                      {
                        OFFSET 0.1475 -2.0882 0.0028
                      }
                    }
                  }
                }
                JOINT RightFinger3
                {
                  OFFSET -0.6113 -8.7231 -2.0637
                  CHANNELS 3 Zrotation Xrotation Yrotation
                  JOINT RightFinger31
                  {
                    OFFSET 0.1927 -3.8059 -0.2383
                    CHANNELS 3 Zrotation Xrotation Yrotation
                    JOINT RightFinger32
                    {
                      OFFSET 0.1091 -2.1688 -0.1362
                      CHANNELS 3 Zrotation Xrotation Yrotation
                      End Site
                      {
                        OFFSET 0.2358 -1.9176 -0.0906
                      }
                    }
                  }
                }
                JOINT RightFinger4
                {
                  OFFSET 0.6151 -8.0947 -3.564
                  CHANNELS 3 Zrotation Xrotation Yrotation
                  JOINT RightFinger41
                  {
                    OFFSET 0.4882 -2.341 -0.6462
                    CHANNELS 3 Zrotation Xrotation Yrotation
                    JOINT RightFinger42
                    {
                      OFFSET 0.3574 -1.7166 -0.4742
                      CHANNELS 3 Zrotation Xrotation Yrotation
                      End Site
                      {
                        OFFSET 0.4187 -1.5237 -0.3496
                      }
                    }
                  }
                }
                JOINT RightFinger0
                {
                  OFFSET 1.4199 -1.8761 1.4221
                  CHANNELS 3 Zrotation Xrotation Yrotation
                  JOINT RightFinger01
                  {
                    OFFSET 1.1472 -3.4929 2.6336
                    CHANNELS 3 Zrotation Xrotation Yrotation
                    JOINT RightFinger02
                    {
                      OFFSET 0.8229 -2.3 1.6571
                      CHANNELS 3 Zrotation Xrotation Yrotation
                      End Site
                      {
                        OFFSET 0.5822 -1.6914 1.1582
                      }
                    }
                  }
                }
              }
            }
          }
        }
      }
    }
  }
  JOINT RightHip
  {
    OFFSET -9.412 3.9771 -0.7758
    CHANNELS 3 Zrotation Xrotation Yrotation
    JOINT RightKnee
    {
      OFFSET -0.7531 -40.938 0
      CHANNELS 3 Zrotation Xrotation Yrotation
      JOINT RightAnkle
      {
        OFFSET 0 -40.1986 0
        CHANNELS 3 Zrotation Xrotation Yrotation
        JOINT RightToe
        {
          OFFSET 0 -4.4182 9.239
          CHANNELS 3 Zrotation Xrotation Yrotation
          End Site
          {
            OFFSET 0 0 6.1981
          }
        }
      }
    }
  }
  JOINT LeftHip
  {
    OFFSET 9.4119 3.9773 -0.7758
    CHANNELS 3 Zrotation Xrotation Yrotation
    JOINT LeftKnee
    {
      OFFSET 0.7532 -40.9383 0
      CHANNELS 3 Zrotation Xrotation Yrotation
      JOINT LeftAnkle
      {
        OFFSET 0 -40.1986 0
        CHANNELS 3 Zrotation Xrotation Yrotation
        JOINT LeftToe
        {
          OFFSET 0 -4.4182 9.239
          CHANNELS 3 Zrotation Xrotation Yrotation
          End Site
          {
            OFFSET 0 0 6.1981
          }
        }
      }
    }
  }
}
MOTION
Frames:	4
Frame Time:	0.0333333
-40.2306 1.35888 30.5266 -105.104 6.9388 -101.105 0.791589 12.2588 -0.696229 1.80415 24.5053 -1.62856 1.80413 24.5053 -1.62857 2.03496 10.9904 -0.390767 -24.4568 -24.734 -33.9039 -50.6488 17.5382 -29.9318 178.139 3.44079 134.51 -122.766 -36.8249 -71.8541 -15.5961 0.810833 8.55472 -4.37503e-006 1.05477e-005 2.51539e-007 4.37503e-006 -1.05477e-005 -2.51538e-007 2.1619e-006 2.34684e-005 3.31392e-007 -4.37503e-006 1.05477e-005 2.51539e-007 -0.012815 0.00233403 8.69735e-005 -1.81758e-006 -6.93942e-006 4.59373e-007 -4.37503e-006 1.05477e-005 2.51539e-007 -0.0160536 0.00299143 0.000854767 6.63907e-007 8.14753e-006 2.45673e-006 -4.37503e-006 1.05477e-005 2.51539e-007 -0.0125901 0.00312074 0.0028292 -1.13891e-006 1.1304e-006 2.04116e-006 -4.37503e-006 1.05477e-005 2.51539e-007 4.37503e-006 -1.05477e-005 -2.51538e-007 2.1619e-006 2.34684e-005 3.31392e-007 -7.51303 6.98865 4.36436 -20.6896 -13.4922 17.8626 -128.554 -79.3874 177.61 27.9347 -13.1217 1.00386 3.18055e-015 3.81667e-014 6.36111e-015 0 3.97569e-014 -0 -1.59028e-015 3.81667e-014 9.54166e-015 3.18055e-015 3.81667e-014 6.36111e-015 0.0129517 0.0023208 -9.31463e-005 -3.18055e-015 3.18055e-015 -0 3.18055e-015 3.81667e-014 6.36111e-015 0.0163311 0.00302925 -0.000864193 -3.35628e-006 5.26645e-006 -1.20747e-005 3.18055e-015 3.81667e-014 6.36111e-015 0.0145887 0.003685 -0.00326283 4.77083e-015 4.77083e-015 -3.18055e-015 3.18055e-015 3.81667e-014 6.36111e-015 0 3.97569e-014 -0 -1.59028e-015 3.81667e-014 9.54166e-015 0.209535 2.8866 25.4771 0.345434 45.3863 -0.565999 22.5247 24.4508 2.99188 -2.3197e-006 -3.00031e-005 -1.17296e-005 36.4125 -11.2829 5.7958 179.027 79.8144 -177.585 -25.8754 18.2652 0.971951 -2.998e-006 -1.5409e-006 2.54631e-007 
-40.2306 1.3587 30.5267 -105.104 6.9388 -101.105 0.791589 12.2588 -0.696229 1.80415 24.5053 -1.62856 1.80413 24.5053 -1.62857 2.03496 10.9904 -0.390767 -24.274 -24.7521 -33.6812 -50.6488 17.5382 -29.9318 178.139 3.44079 134.51 -122.766 -36.825 -71.854 -15.5961 0.81085 8.55469 -3.18055e-015 3.18055e-015 -7.95139e-016 -6.36111e-015 6.36111e-015 -7.95139e-016 -3.18055e-015 4.77083e-015 7.95139e-016 -3.18055e-015 3.18055e-015 -7.95139e-016 -0.0128222 0.00231956 8.53107e-005 -3.18055e-015 -1.59028e-015 7.95139e-016 -3.18055e-015 3.18055e-015 -7.95139e-016 -0.0160464 0.00299738 0.000852055 6.36111e-015 1.59028e-015 -7.95139e-016 -3.18055e-015 3.18055e-015 -7.95139e-016 -0.012589 0.00311192 0.00282891 -3.18055e-015 4.77083e-015 -2.38542e-015 -3.18055e-015 3.18055e-015 -7.95139e-016 -6.36111e-015 6.36111e-015 -7.95139e-016 -3.18055e-015 4.77083e-015 7.95139e-016 -7.51303 6.98865 4.36436 -20.6896 -13.4922 17.8625 -128.554 -79.3874 177.61 27.9347 -13.1216 1.00389 -6.36111e-015 0 -0 -3.18055e-015 -3.18055e-015 -3.18055e-015 -3.18055e-015 3.18055e-015 -3.18055e-015 -6.36111e-015 0 -0 0.0129788 0.00232667 -9.85035e-005 -3.18055e-015 -1.59028e-015 9.54166e-015 -6.36111e-015 0 -0 0.0163415 0.00303713 -0.000874571 -3.18055e-015 -3.18055e-015 -0 -6.36111e-015 0 -0 0.0145906 0.00368681 -0.00326959 -1.59028e-015 -4.77083e-015 1.27222e-014 -6.36111e-015 0 -0 -3.18055e-015 -3.18055e-015 -3.18055e-015 -3.18055e-015 3.18055e-015 -3.18055e-015 0.20952 2.88561 25.4772 0.345779 45.3871 -0.565961 22.5248 24.4509 2.99182 4.09644e-006 -6.92072e-007 -1.46906e-006 36.4935 -11.2714 5.88647 179.027 79.8151 -177.584 -25.8759 18.2676 0.972688 -1.35848e-005 3.38253e-006 -1.20598e-005 
-40.2305 1.35852 30.5267 -105.104 6.9388 -101.105 0.791589 12.2588 -0.696229 1.80415 24.5053 -1.62856 1.80413 24.5053 -1.62857 2.03496 10.9904 -0.390767 -24.091 -24.7695 -33.4583 -50.6488 17.5382 -29.9318 178.139 3.44079 134.51 -122.766 -36.825 -71.854 -15.5961 0.81085 8.55469 -3.18055e-015 3.18055e-015 -7.95139e-016 -6.36111e-015 6.36111e-015 -7.95139e-016 -3.18055e-015 4.77083e-015 7.95139e-016 -3.18055e-015 3.18055e-015 -7.95139e-016 -0.0128222 0.00231956 8.53107e-005 -3.18055e-015 -1.59028e-015 7.95139e-016 -3.18055e-015 3.18055e-015 -7.95139e-016 -0.0160464 0.00299738 0.000852055 6.36111e-015 1.59028e-015 -7.95139e-016 -3.18055e-015 3.18055e-015 -7.95139e-016 -0.012589 0.00311192 0.00282891 -3.18055e-015 4.77083e-015 -2.38542e-015 -3.18055e-015 3.18055e-015 -7.95139e-016 -6.36111e-015 6.36111e-015 -7.95139e-016 -3.18055e-015 4.77083e-015 7.95139e-016 -7.51303 6.98865 4.36436 -20.6896 -13.4922 17.8626 -128.554 -79.3874 177.61 27.9347 -13.1217 1.00384 -1.76556e-031 1.59028e-015 6.36111e-015 1.13512e-006 1.36561e-007 -2.35919e-006 -4.77083e-015 -1.59028e-015 -0 -1.76556e-031 1.59028e-015 6.36111e-015 0.012974 0.00232663 -8.57218e-005 -1.59028e-015 1.59028e-015 -6.36111e-015 -1.76556e-031 1.59028e-015 6.36111e-015 0.0163305 0.00303961 -0.00088275 2.72792e-007 -5.50853e-006 6.71454e-006 -1.76556e-031 1.59028e-015 6.36111e-015 0.0145666 0.00368476 -0.00326894 -1.59028e-015 3.18055e-015 -3.18055e-015 -1.76556e-031 1.59028e-015 6.36111e-015 1.13512e-006 1.36561e-007 -2.35919e-006 -4.77083e-015 -1.59028e-015 -0 0.209529 2.88701 25.4771 0.345142 45.3857 -0.565948 22.5248 24.4511 2.9918 1.46686e-006 -3.84952e-006 -8.73684e-007 36.5744 -11.2597 5.97707 179.027 79.8159 -177.584 -25.8765 18.27 0.973445 6.36111e-015 -4.77083e-015 9.54166e-015 
-40.2305 1.35835 30.5267 -105.104 6.9388 -101.105 0.791589 12.2588 -0.696229 1.80415 24.5053 -1.62856 1.80413 24.5053 -1.62857 2.03496 10.9904 -0.390767 -23.9078 -24.7863 -33.2353 -50.6488 17.5382 -29.9318 178.139 3.44076 134.51 -122.766 -36.8249 -71.8541 -15.5961 0.810835 8.55472 -4.41391e-032 -3.18055e-015 -7.95139e-016 -3.18055e-015 0 -7.95139e-016 -3.18055e-015 -3.18055e-015 -7.95139e-016 -4.41391e-032 -3.18055e-015 -7.95139e-016 -0.0128274 0.00232094 8.14008e-005 -9.54166e-015 -1.59028e-015 2.38542e-015 -4.41391e-032 -3.18055e-015 -7.95139e-016 -0.0160521 0.00297525 0.000857455 -2.20695e-032 -1.59028e-015 -7.95139e-016 -4.41391e-032 -3.18055e-015 -7.95139e-016 -0.0125628 0.00312261 0.00281913 -3.18055e-015 -4.77083e-015 -7.95139e-016 -4.41391e-032 -3.18055e-015 -7.95139e-016 -3.18055e-015 0 -7.95139e-016 -3.18055e-015 -3.18055e-015 -7.95139e-016 -7.51303 6.98865 4.36436 -20.6895 -13.4922 17.8625 -128.554 -79.3874 177.61 27.9347 -13.1217 1.00385 1.59028e-015 9.54166e-015 -9.54166e-015 -1.59028e-015 0 -3.18055e-015 -3.18055e-015 -1.59028e-015 3.18055e-015 1.59028e-015 9.54166e-015 -9.54166e-015 0.0129335 0.00232163 -8.89357e-005 0 3.18055e-015 -0 1.59028e-015 9.54166e-015 -9.54166e-015 0.0163413 0.0030439 -0.00087105 -1.76556e-031 -1.59028e-015 -6.36111e-015 1.59028e-015 9.54166e-015 -9.54166e-015 0.0145702 0.00368439 -0.00326534 6.36111e-015 -3.18055e-015 -1.27222e-014 1.59028e-015 9.54166e-015 -9.54166e-015 -1.59028e-015 0 -3.18055e-015 -3.18055e-015 -1.59028e-015 3.18055e-015 0.209537 2.89107 25.4771 0.343252 45.3818 -0.565851 22.5249 24.4512 2.99176 1.04588e-005 4.97255e-005 1.36777e-005 36.6553 -11.2478 6.06765 179.027 79.8168 -177.584 -25.8771 18.2724 0.97417 3.18055e-015 1.59028e-015 6.36111e-015 
